<svg width="80" height="80" viewBox="0 0 80 80" fill="none" xmlns="http://www.w3.org/2000/svg">
<path d="M44.8575 27.4165L44.8122 27.7181L45.0597 27.8964L48.2413 30.1881C48.8248 30.6689 49.0246 31.4167 48.7428 32.0854L48.7428 32.0854L48.7407 32.0904L46.9589 36.4496C46.664 37.1053 45.986 37.5142 45.2578 37.3755L45.2472 37.3734L45.2366 37.3719L41.3849 36.8085L41.0975 36.7664L40.9186 36.9953C39.7692 38.4659 38.4849 39.7489 37.0202 40.8471L36.7829 41.0251L36.8253 41.3187L37.389 45.2158L37.3909 45.2291L37.3936 45.2423C37.5298 45.9229 37.1196 46.6438 36.466 46.9378L32.1088 48.7174C32.1082 48.7176 32.1076 48.7179 32.107 48.7181C31.8841 48.8071 31.6769 48.8694 31.4956 48.8694C31.0134 48.8694 30.5421 48.6296 30.2008 48.2187L27.9087 45.0393L27.7285 44.7893L27.4241 44.8379C26.2927 45.0189 25.1537 45.066 23.9971 45.0664C23.3171 45.0202 22.6343 44.9297 21.9327 44.8361L21.636 44.7965L21.461 45.0393L19.1623 48.2278C18.7377 48.7904 17.952 49.0081 17.2698 48.7208L17.2698 48.7207L17.2647 48.7187L12.9036 46.9376C12.2531 46.6451 11.8292 45.918 11.9332 45.2201C11.9333 45.2195 11.9334 45.2189 11.9335 45.2183L12.5435 41.3724L12.5907 41.0748L12.3496 40.8941C10.889 39.7991 9.60641 38.4725 8.50385 37.0031L8.32589 36.7659L8.03241 36.8084L4.13366 37.3718L4.12025 37.3737L4.10696 37.3764C3.42579 37.5128 2.7045 37.1026 2.41045 36.4495L0.628644 32.0904L0.628671 32.0904L0.626574 32.0854C0.344792 31.4167 0.544555 30.6689 1.12804 30.1881L4.30966 27.8965L4.55717 27.7183L4.5119 27.4166C4.23746 25.5878 4.23746 23.76 4.5119 21.931L4.55717 21.6294L4.30966 21.4511L1.12805 19.1595C0.544549 18.6788 0.344815 17.9306 0.62655 17.2623L0.626577 17.2623L0.628644 17.2572L2.41047 12.8981C2.70301 12.2481 3.43047 11.8242 4.12905 11.9281L7.97853 12.5381L8.27598 12.5852L8.45673 12.3443C9.55212 10.8845 10.8793 9.60243 12.3494 8.50036L12.59 8.31998L12.5435 8.0229L11.9333 4.12898C11.9332 4.12851 11.9332 4.12804 11.9331 4.12757C11.8289 3.42979 12.2528 2.70238 12.9035 2.40965L17.2646 0.628629L17.2646 0.628657L17.2696 0.626538C17.9385 0.344794 18.6873 0.54463 19.1682 1.12784L21.4608 4.30804L21.6358 4.5508L21.9325 4.51126C22.6427 4.41661 23.3141 4.328 23.9801 4.328H23.9901L24.0002 4.3276C25.1478 4.28156 26.2883 4.32789 27.424 4.50938L27.7283 4.558L27.9085 4.30804L30.2012 1.12784C30.6821 0.544668 31.4308 0.344756 32.1001 0.626562L32.1001 0.626589L32.1051 0.628625L36.4659 2.40965C37.1192 2.70347 37.5295 3.42443 37.3934 4.10525L37.3909 4.118L37.389 4.13086L36.8253 7.98076L36.7823 8.27489L37.0201 8.45323C38.4804 9.54816 39.763 10.8748 40.8655 12.3442L41.0459 12.5846L41.3428 12.5381L45.235 11.9287C45.236 11.9286 45.237 11.9284 45.2381 11.9283C45.9813 11.8234 46.6651 12.2448 46.9589 12.8979L48.7407 17.2571L48.7428 17.2621C49.0246 17.9304 48.8248 18.6786 48.2413 19.1593L45.0597 21.4509L44.8122 21.6292L44.8575 21.9309C45.1319 23.7597 45.1319 25.5875 44.8575 27.4165ZM35.9951 29.377L35.9962 29.3743C37.269 26.3396 37.2691 23.0077 35.9962 19.9732L35.9951 19.9705C34.7232 16.9879 32.3738 14.6395 29.3898 13.3685L29.3862 13.367C27.6251 12.6333 25.8137 12.3397 23.9581 12.4369C22.5716 12.4867 21.2447 12.8333 19.9807 13.368L19.9795 13.3685C16.9957 14.6395 14.6462 16.9878 13.3746 19.9705L13.3735 19.9732C12.1004 23.0075 12.1003 26.3394 13.3733 29.3739C15.229 33.8161 19.3771 36.6048 23.9195 36.8618C24.1901 36.9111 24.4528 36.911 24.6674 36.911H24.6848C26.2522 36.911 27.8192 36.6168 29.382 35.9822L29.382 35.9823L29.3898 35.979C32.3736 34.708 34.7232 32.3597 35.9951 29.377Z" stroke="#2C415B"/>
<path d="M74.1384 49.4038L74.2129 49.6943L74.5043 49.7654L78.3357 50.6999C78.3362 50.7 78.3366 50.7001 78.3371 50.7002C79.0354 50.8755 79.5001 51.5058 79.5003 52.2254C79.5003 52.2255 79.5003 52.2255 79.5003 52.2255V56.9013C79.5003 57.621 79.0354 58.2513 78.3371 58.4265C78.3367 58.4266 78.3363 58.4267 78.3358 58.4268L74.5044 59.3613L74.2131 59.4324L74.1386 59.7229C73.6821 61.5029 72.9977 63.1917 72.0848 64.7892L71.9389 65.0447L72.0913 65.2963L74.1019 68.6163L74.1029 68.618C74.4921 69.2548 74.3932 70.0307 73.8486 70.5755L70.5757 73.8485C70.031 74.393 69.2551 74.4918 68.6183 74.1025L68.6165 74.1014L65.2965 72.0908L65.0449 71.9384L64.7894 72.0844C63.1917 72.9974 61.5033 73.682 59.7232 74.1383L59.4327 74.2128L59.3616 74.5042L58.4271 78.3356C58.427 78.336 58.4269 78.3363 58.4268 78.3367C58.2517 79.0352 57.6213 79.5 56.9016 79.5H52.2258C51.5061 79.5 50.8758 79.0352 50.7006 78.3369C50.7005 78.3364 50.7004 78.336 50.7003 78.3356L49.7658 74.5042L49.6947 74.2128L49.4042 74.1383C47.6239 73.682 45.9355 72.9974 44.338 72.0844L44.0825 71.9384L43.8309 72.0908L40.5109 74.1014L40.509 74.1025C39.8723 74.4919 39.0964 74.393 38.5517 73.8485L35.2788 70.5755C34.7342 70.0307 34.6353 69.2548 35.0245 68.618L35.0255 68.6163L37.0361 65.2963L37.1885 65.0447L37.0426 64.7892C36.1297 63.1915 35.4451 61.5029 34.9888 59.7229L34.9143 59.4324L34.6229 59.3613L30.7915 58.4268C30.7911 58.4267 30.7906 58.4266 30.7901 58.4265C30.1143 58.2568 29.6895 57.6459 29.6895 56.9013V52.2254C29.6895 51.4807 30.1144 50.8698 30.7903 50.7002C30.7907 50.7001 30.7911 50.7 30.7916 50.6999L34.6229 49.7654L34.9143 49.6943L34.9888 49.4038C35.4452 47.6235 36.1297 45.9351 37.0425 44.3375L37.1885 44.0821L37.0361 43.8304L35.0255 40.5104L35.0245 40.5087C34.6353 39.8719 34.7343 39.0957 35.2787 38.5513L38.5517 35.2782C39.0964 34.7335 39.8723 34.6347 40.5092 35.0239L40.5109 35.025L43.8309 37.0356L44.0825 37.188L44.3379 37.042C45.9356 36.1291 47.624 35.4447 49.4042 34.9881L49.6947 34.9136L49.7658 34.6223L50.7003 30.7912C50.7004 30.7907 50.7005 30.7903 50.7006 30.7899C50.8702 30.1141 51.4812 29.6892 52.2258 29.6892H56.9016C57.6463 29.6892 58.2572 30.114 58.4268 30.7899C58.4269 30.7903 58.427 30.7907 58.4271 30.7912L59.3616 34.6223L59.4327 34.9136L59.7231 34.9881C61.5035 35.4447 63.1919 36.1291 64.7894 37.042L65.0449 37.188L65.2965 37.0356L68.6164 35.025L68.6181 35.0239C69.255 34.6347 70.0308 34.7335 70.5755 35.2782L73.8485 38.5513C74.393 39.0957 74.492 39.8719 74.1028 40.5087L74.1017 40.5104L72.0911 43.8304L71.9387 44.0821L72.0847 44.3375C72.9975 45.9353 73.6821 47.6237 74.1384 49.4038ZM42.3742 54.5634C42.3742 61.2922 47.8349 66.753 54.5637 66.753C61.2925 66.753 66.7532 61.2922 66.7532 54.5634C66.7532 47.8345 61.2925 42.3737 54.5637 42.3737C47.8349 42.3737 42.3742 47.8345 42.3742 54.5634Z" fill="#FCE1D0" stroke="#FF5500"/>
</svg>
