<svg width="250" height="250" viewBox="0 0 250 250" fill="none" xmlns="http://www.w3.org/2000/svg">
<g opacity="0.1" clip-path="url(#clip0)">
<path d="M7.32433 205.566H43.9453V227.539C43.9453 231.584 47.2246 234.863 51.2696 234.863H242.675C246.72 234.863 250 231.584 250 227.539V37.1093C250 33.0644 246.72 29.7851 242.675 29.7851H206.054V22.4609C206.054 18.416 202.775 15.1367 198.73 15.1367C194.685 15.1367 191.406 18.416 191.406 22.4609V29.7851H154.297V22.4609C154.297 18.416 151.017 15.1367 146.972 15.1367C142.928 15.1367 139.648 18.416 139.648 22.4609V29.7851H103.027V22.4609C103.027 18.416 99.748 15.1367 95.7031 15.1367C91.6581 15.1367 88.3789 18.416 88.3789 22.4609V29.7851H51.2696C47.2246 29.7851 43.9453 33.0644 43.9453 37.1093V81.0546C43.9453 135.034 21.5113 176.56 2.63537 192.615C0.266235 194.589 -0.612181 197.836 0.437134 200.735C1.48742 203.635 4.24035 205.566 7.32433 205.566ZM235.351 220.214H58.5938V205.566H198.73C200.444 205.566 202.103 204.965 203.419 203.868C212.224 196.535 225.862 179.075 235.351 156.713V220.214ZM58.5938 44.4335H88.3789V51.7577C88.3789 55.8027 91.6581 59.0819 95.7031 59.0819C99.748 59.0819 103.027 55.8027 103.027 51.7577V44.4335H139.648V51.7577C139.648 55.8027 142.928 59.0819 146.972 59.0819C151.017 59.0819 154.297 55.8027 154.297 51.7577V44.4335H191.406V51.7577C191.406 55.8027 194.685 59.0819 198.73 59.0819C202.775 59.0819 206.054 55.8027 206.054 51.7577V44.4335H235.351V73.7304H58.5938V44.4335ZM58.4683 88.3739H235.221C233.571 134.836 215.738 171.393 195.858 190.918H23.984C46.5098 162.216 57.2598 124.845 58.4683 88.3739Z" fill="#2C415B"/>
</g>
<defs>
<clipPath id="clip0">
<rect width="250" height="250" fill="white"/>
</clipPath>
</defs>
</svg>
