<svg width="250" height="250" viewBox="0 0 250 250" fill="none" xmlns="http://www.w3.org/2000/svg">
<g opacity="0.1">
<path d="M228.815 235.775C223.762 210.508 203.188 191.384 177.618 188.188L160.685 186.071L157.88 172.042C178.371 160.43 191.65 138.472 191.65 114.054V41.3172C191.65 22.035 175.963 6.34766 156.68 6.34766H93.2688C73.9866 6.34766 58.2993 22.035 58.2993 41.3172V114.054C58.2993 138.74 71.8218 160.568 92.0692 172.042L89.2637 186.071L72.3305 188.188C46.7612 191.384 26.187 210.508 21.1337 235.775C20.2711 240.093 23.5741 244.141 27.9923 244.141H221.957C226.374 244.141 229.679 240.094 228.815 235.775ZM93.2688 20.3355H156.68C167.779 20.3355 176.887 28.9991 177.61 39.9184H143.625C138.685 39.9184 135.294 44.9167 137.131 49.5099L140.755 58.5689H72.2871V41.3172C72.2871 29.7479 81.6995 20.3355 93.2688 20.3355ZM72.2871 114.054V72.5567H151.085C156.025 72.5567 159.416 67.5584 157.579 62.9652L153.955 53.9062H177.662V114.054C177.662 143.664 153.405 166.741 124.975 166.741C96.5709 166.741 72.2871 143.691 72.2871 114.054ZM144.751 177.722L146.91 188.519L124.975 199.486L103.039 188.519L105.199 177.722C117.821 181.644 131.564 181.818 144.751 177.722ZM37.367 230.153C43.5342 215.044 57.4176 204.149 74.0654 202.068L93.9002 199.588L121.847 213.562C123.805 214.541 126.122 214.552 128.102 213.562L156.049 199.588L175.884 202.068C192.532 204.149 206.415 215.044 212.582 230.153H37.367Z" fill="#2C415B"/>
<path d="M110.054 105.675C116.231 105.675 119.418 98.1529 114.999 93.7351C107.909 86.6466 96.3737 86.6466 89.2833 93.7351C86.5524 96.466 86.5519 100.895 89.2828 103.626C92.0142 106.357 96.4422 106.357 99.1741 103.627C100.81 101.99 103.473 101.99 105.109 103.627C106.475 104.992 108.264 105.675 110.054 105.675Z" fill="#2C415B"/>
<path d="M144.84 103.627C146.476 101.99 149.139 101.99 150.775 103.627C152.141 104.993 153.931 105.675 155.72 105.675C161.897 105.675 165.084 98.1534 160.665 93.7356C153.575 86.647 142.04 86.647 134.949 93.7356C132.218 96.4665 132.218 100.895 134.949 103.627C137.681 106.357 142.109 106.357 144.84 103.627Z" fill="#2C415B"/>
<path d="M143.023 146.42C146.471 144.697 147.864 140.513 146.15 137.061C144.436 133.608 140.244 132.197 136.786 133.9C135.091 134.734 129.666 136.901 124.975 136.901C120.284 136.901 114.859 134.734 113.164 133.9C109.712 132.186 105.523 133.588 103.799 137.037C102.072 140.491 103.472 144.693 106.927 146.42C107.842 146.877 116.119 150.888 124.975 150.888C133.83 150.888 142.108 146.877 143.023 146.42Z" fill="#2C415B"/>
</g>
</svg>
