<svg width="250" height="250" viewBox="0 0 250 250" fill="none" xmlns="http://www.w3.org/2000/svg">
<g opacity="0.1" clip-path="url(#clip0)">
<path d="M242.603 200.39H208.414V26.6743C208.414 16.5424 200.171 8.30078 190.041 8.30078C179.909 8.30078 171.667 16.5424 171.667 26.6743V156.769L144.644 24.6449C142.708 15.1749 134.287 8.30078 124.619 8.30078H41.7233C27.1912 8.30078 15.3675 20.1244 15.3675 34.6546V132.179H7.3967C3.31116 132.179 0 135.49 0 139.574V207.787C0 226.498 15.2225 241.72 33.9336 241.72C50.1041 241.72 63.6597 230.347 67.0452 215.183H136.013C139.399 230.347 152.954 241.72 169.125 241.72C185.295 241.72 198.851 230.347 202.236 215.183H242.603C246.689 215.183 250 211.872 250 207.787C250 203.701 246.689 200.39 242.603 200.39ZM149.984 207.787C149.984 197.241 158.556 188.662 169.098 188.646C169.104 188.646 169.111 188.648 169.117 188.648C169.125 188.648 169.13 188.646 169.138 188.646C179.686 188.654 188.265 197.237 188.265 207.787C188.265 218.34 179.68 226.927 169.125 226.927C158.571 226.927 149.984 218.34 149.984 207.787ZM193.621 184.341C191.505 182.133 189.1 180.206 186.46 178.631V49.4156H193.621V184.341ZM190.041 23.0942C192.015 23.0942 193.621 24.7002 193.621 26.6743V34.6241H186.46V26.6743C186.46 24.7002 188.066 23.0942 190.041 23.0942ZM41.7233 23.0942H124.619C127.291 23.0942 129.616 24.992 130.152 27.6089L131.586 34.6241H30.1609C30.18 28.2631 35.3584 23.0942 41.7233 23.0942ZM30.1609 49.4156H134.611L155.632 152.189L135.359 125.5L140.495 120.363C143.383 117.474 143.383 112.791 140.495 109.901C137.608 107.014 132.923 107.014 130.035 109.901L110.634 129.305C107.746 132.193 107.746 136.877 110.634 139.765C112.078 141.209 113.972 141.932 115.864 141.932C117.756 141.932 119.65 141.209 121.094 139.765L124.802 136.057L153.511 173.853H96.447C89.1914 173.853 83.2863 167.948 83.2863 160.692C83.2863 156.609 79.9751 153.296 75.8896 153.296H58.5461L54.3976 137.678C53.5374 134.436 50.6039 132.179 47.2488 132.179H30.1609V49.4156ZM41.5611 146.973L45.7077 162.59C46.5679 165.833 49.5033 168.089 52.8564 168.089H69.4885C72.7386 179.924 83.5953 188.646 96.4489 188.646H141.123C138.723 192.146 136.967 196.117 136.013 200.39H67.0452C63.6597 185.225 50.1041 173.853 33.9336 173.853C26.8364 173.853 20.2446 176.046 14.7915 179.785V146.971H41.5611V146.973ZM53.0739 207.787C53.0739 218.34 44.487 226.927 33.9336 226.927C23.3784 226.927 14.7934 218.34 14.7934 207.787C14.7934 197.231 23.3784 188.646 33.9336 188.646C44.487 188.646 53.0739 197.231 53.0739 207.787Z" fill="#2C415B"/>
</g>
<defs>
<clipPath id="clip0">
<rect width="250" height="250" fill="white"/>
</clipPath>
</defs>
</svg>
