<svg width="250" height="250" viewBox="0 0 250 250" fill="none" xmlns="http://www.w3.org/2000/svg">
<g opacity="0.1">
<path d="M51.2695 132.324C39.1538 132.324 29.2969 142.181 29.2969 154.297C29.2969 166.413 39.1538 176.27 51.2695 176.27C63.3853 176.27 73.2422 166.413 73.2422 154.297C73.2422 142.181 63.3853 132.324 51.2695 132.324ZM51.2695 161.621C47.231 161.621 43.9453 158.335 43.9453 154.297C43.9453 150.258 47.231 146.973 51.2695 146.973C55.3081 146.973 58.5938 150.258 58.5938 154.297C58.5938 158.335 55.3081 161.621 51.2695 161.621Z" fill="#2C415B"/>
<path d="M213.379 161.621H204.795C201.771 153.097 193.63 146.973 184.082 146.973C174.534 146.973 166.393 153.097 163.369 161.621H147.461C139.384 161.621 132.812 155.05 132.812 146.973C132.812 138.896 139.384 132.324 147.461 132.324H198.73C201.042 132.324 203.26 131.19 204.611 129.366L239.767 82.0078C246.461 73.0835 250 62.4541 250 51.2695C250 22.9995 227 0 198.73 0C170.46 0 147.461 22.9995 147.461 51.2695C147.461 62.4473 150.995 73.0703 157.682 81.9917L184.172 117.676H147.461C131.307 117.676 118.164 130.818 118.164 146.973C118.164 163.127 131.307 176.27 147.461 176.27H163.369C166.393 184.794 174.534 190.918 184.082 190.918C193.63 190.918 201.771 184.794 204.795 176.27H213.379C225.495 176.27 235.352 186.126 235.352 198.242C235.352 210.417 225.29 220.703 213.379 220.703H160.85C157.826 212.179 149.685 206.055 140.137 206.055C130.588 206.055 122.447 212.179 119.424 220.703H65.8281L92.3057 185.035C99.0005 176.111 102.539 165.481 102.539 154.297C102.539 126.027 79.5396 103.027 51.2695 103.027C22.9995 103.027 0 126.027 0 154.297C0 165.481 3.53857 176.111 10.2114 185.006L45.2871 232.256C46.6089 234.126 48.8086 235.352 51.2637 235.352C51.291 235.352 51.3179 235.352 51.3457 235.352H119.424C122.447 243.876 130.588 250 140.137 250C149.685 250 157.826 243.876 160.85 235.352H213.379C223.163 235.352 232.38 231.435 239.333 224.322C246.211 217.285 250 208.022 250 198.242C250 178.049 233.572 161.621 213.379 161.621ZM169.434 73.2471C169.427 73.2373 169.42 73.2275 169.412 73.2178C164.635 66.8491 162.109 59.2593 162.109 51.2695C162.109 31.0767 178.538 14.6484 198.73 14.6484C218.923 14.6484 235.352 31.0767 235.352 51.2695C235.352 59.2593 232.826 66.8491 228.027 73.2471L198.73 112.712L169.434 73.2471ZM184.082 176.27C180.043 176.27 176.758 172.984 176.758 168.945C176.758 164.907 180.043 161.621 184.082 161.621C188.121 161.621 191.406 164.907 191.406 168.945C191.406 172.984 188.121 176.27 184.082 176.27ZM51.2695 215.739L21.9512 176.245C17.1738 169.876 14.6484 162.287 14.6484 154.297C14.6484 134.104 31.0767 117.676 51.2695 117.676C71.4624 117.676 87.8906 134.104 87.8906 154.297C87.8906 162.287 85.3652 169.876 80.5659 176.274L51.2695 215.739ZM140.137 235.352C136.098 235.352 132.812 232.066 132.812 228.027C132.812 223.989 136.098 220.703 140.137 220.703C144.175 220.703 147.461 223.989 147.461 228.027C147.461 232.066 144.175 235.352 140.137 235.352Z" fill="#2C415B"/>
<path d="M198.73 29.2969C186.615 29.2969 176.758 39.1538 176.758 51.2695C176.758 63.3853 186.615 73.2422 198.73 73.2422C210.846 73.2422 220.703 63.3853 220.703 51.2695C220.703 39.1538 210.846 29.2969 198.73 29.2969ZM198.73 58.5938C194.692 58.5938 191.406 55.3081 191.406 51.2695C191.406 47.231 194.692 43.9453 198.73 43.9453C202.769 43.9453 206.055 47.231 206.055 51.2695C206.055 55.3081 202.769 58.5938 198.73 58.5938Z" fill="#2C415B"/>
</g>
</svg>
