<svg width="18" height="18" viewBox="0 0 18 18" fill="none" xmlns="http://www.w3.org/2000/svg">
<path opacity="0.3" d="M0.248408 13.9693C0.235669 13.9947 0.203822 14.0076 0.152866 14.0076H0.0955414C0.0318471 13.9693 0 13.9248 0 13.8738V6.24983C0 6.18614 0.0254777 6.14156 0.0764331 6.11608C0.127389 6.10334 0.178344 6.10334 0.229299 6.11608L5.3121 9.02044C5.36306 9.04586 5.38853 9.08417 5.38853 9.13509C5.38853 9.19881 5.36943 9.237 5.33121 9.24974L0.248408 13.9693ZM17.3312 16.0712C17.3695 16.1222 17.3822 16.1731 17.3695 16.224C17.3312 16.2877 17.2803 16.3197 17.2166 16.3197H0.592357C0.503185 16.3197 0.407643 16.2878 0.305732 16.224C0.254777 16.1986 0.229299 16.1603 0.229299 16.1094C0.229299 16.0584 0.248408 16.0202 0.286624 15.9947L6.76433 9.97579C6.81529 9.92487 6.87261 9.91847 6.93631 9.95672L8.65605 10.9313C8.89809 11.0713 9.14647 11.0713 9.40124 10.9313L11.3503 9.78475C11.4268 9.73376 11.4841 9.74016 11.5224 9.80383L17.3312 16.0712ZM17.9236 6.00143C17.9745 6.02691 18 6.0715 18 6.13519V14.1986C18 14.2623 17.9681 14.3069 17.9044 14.3324C17.8918 14.3451 17.8725 14.3514 17.847 14.3514C17.8089 14.3514 17.7707 14.3324 17.7324 14.2941L12.8981 9.07777C12.8599 9.03946 12.8472 9.00134 12.8599 8.96312C12.8599 8.91217 12.8789 8.87395 12.9172 8.84847L17.7707 6.00143C17.8089 5.96322 17.8599 5.96322 17.9236 6.00143ZM17.3885 1.68311C17.5669 1.68311 17.7134 1.74043 17.828 1.85507C17.9427 1.96972 18 2.10984 18 2.27544V4.10978C18 4.19895 17.9554 4.24353 17.8663 4.24353C17.7898 4.25627 17.7197 4.28812 17.6561 4.33907L9.09557 9.36435C9.08283 9.37709 9.05732 9.38349 9.01911 9.38349C8.98089 9.38349 8.95541 9.37709 8.94274 9.36435L0.11465 4.33907C0.0382166 4.28812 0 4.23716 0 4.18621V2.27544C0 2.10984 0.0573248 1.96972 0.171975 1.85507C0.286624 1.74043 0.426752 1.68311 0.592357 1.68311H17.3885Z" fill="#2C415B"/>
</svg>
