<svg width="18" height="18" viewBox="0 0 18 18" fill="none" xmlns="http://www.w3.org/2000/svg">
<g opacity="0.3">
<path d="M8.9997 0C5.14331 0 2.00586 3.13727 2.00586 6.99349C2.00586 8.49537 2.47495 9.9269 3.36243 11.1334C4.18411 12.2503 5.29466 13.0853 6.58528 13.5591L8.50629 17.6854C8.59558 17.8773 8.7881 18 8.99977 18C9.21145 18 9.40393 17.8773 9.4933 17.6854L11.4143 13.5591C12.7049 13.0853 13.8154 12.2504 14.6371 11.1334C15.5246 9.92697 15.9937 8.4954 15.9937 6.99353C15.9936 3.13727 12.8561 0 8.9997 0ZM8.9997 8.89439C7.95155 8.89439 7.0988 8.04164 7.0988 6.99349C7.0988 5.94552 7.95155 5.09298 8.9997 5.09298C10.0479 5.09298 10.9006 5.94555 10.9006 6.99349C10.9006 8.04164 10.0479 8.89439 8.9997 8.89439Z" fill="#2C415B"/>
</g>
</svg>
