<svg width="86" height="62" viewBox="0 0 86 62" fill="none" xmlns="http://www.w3.org/2000/svg">
<g opacity="0.96207">
<path d="M34.8748 42.5219H18.7581" stroke="#22243D" stroke-linecap="round"/>
<path fill-rule="evenodd" clip-rule="evenodd" d="M50.0903 41.3912C50.0903 35.2047 45.7732 18.1108 43.3373 11.15C39.6268 0.554259 32.784 1.00273 32.784 1.00273H6.64988L7.1904 7.05239H30.249C30.249 7.05239 35.9186 6.86828 37.8376 14.4451C39.3931 20.5892 43.9982 36.34 43.9982 41.6556" fill="white"/>
<path d="M50.0903 41.3912C50.0903 35.2047 45.7732 18.1108 43.3373 11.15C39.6268 0.554259 32.784 1.00273 32.784 1.00273H6.64988L7.1904 7.05239H30.249C30.249 7.05239 35.9186 6.86828 37.8376 14.4451C39.3931 20.5892 43.9982 36.34 43.9982 41.6556" stroke="#22243D" stroke-linecap="round" stroke-linejoin="round"/>
<path fill-rule="evenodd" clip-rule="evenodd" d="M45.9276 56.4445H5.16145C2.8648 56.4445 1.0001 54.5798 1.0001 52.2808V29.699C1.0001 28.1364 2.26527 26.8689 3.82784 26.8689H9.09857L11.695 41.6803H50.0913V52.2808C50.0913 54.5798 48.2266 56.4445 45.9276 56.4445Z" fill="white"/>
<path fill-rule="evenodd" clip-rule="evenodd" d="M45.9276 56.4445H5.16146C2.8648 56.4445 1.0001 54.5798 1.0001 52.2808V29.699C1.0001 28.1364 2.26527 26.8689 3.82784 26.8689H9.09857L11.695 41.6803H50.0913V52.2808C50.0913 54.5798 48.2266 56.4445 45.9276 56.4445Z" stroke="#22243D" stroke-linecap="round" stroke-linejoin="round"/>
<path fill-rule="evenodd" clip-rule="evenodd" d="M7.357 26.8694H4.17757L8.06275 7.05164H11.2422L7.357 26.8694Z" fill="white"/>
<path fill-rule="evenodd" clip-rule="evenodd" d="M7.357 26.8694H4.17757L8.06275 7.05164H11.2422L7.357 26.8694Z" stroke="#22243D" stroke-linecap="round" stroke-linejoin="round"/>
<path fill-rule="evenodd" clip-rule="evenodd" d="M29.0616 34.8218L28.8208 34.6306C28.2354 34.1704 28.1363 33.323 28.5989 32.74L33.23 26.8673C33.6903 26.282 34.5353 26.1828 35.1207 26.6431L35.3614 26.8343C35.9468 27.2946 36.0459 28.1396 35.5857 28.725L30.9546 34.5976C30.4943 35.183 29.6469 35.2821 29.0616 34.8218Z" fill="white"/>
<path fill-rule="evenodd" clip-rule="evenodd" d="M29.0616 34.8218L28.8208 34.6306C28.2354 34.1704 28.1363 33.323 28.5989 32.74L33.23 26.8673C33.6903 26.282 34.5353 26.1828 35.1207 26.6431L35.3614 26.8343C35.9468 27.2946 36.0459 28.1396 35.5857 28.725L30.9546 34.5976C30.4943 35.183 29.6469 35.2821 29.0616 34.8218Z" stroke="#22243D" stroke-linecap="round" stroke-linejoin="round"/>
<path fill-rule="evenodd" clip-rule="evenodd" d="M43.1594 41.4649L33.6683 31.1477L43.1594 41.4649Z" fill="white"/>
<path d="M43.1594 41.4649L33.6683 31.1477" stroke="#22243D" stroke-linecap="round" stroke-linejoin="round"/>
<path fill-rule="evenodd" clip-rule="evenodd" d="M19.2402 54.9333C19.2402 58.1789 16.6084 60.813 13.3605 60.813C10.1126 60.813 7.48081 58.1789 7.48081 54.9333C7.48081 51.6855 10.1126 49.0513 13.3605 49.0513C16.6084 49.0513 19.2402 51.6855 19.2402 54.9333Z" fill="white"/>
<path fill-rule="evenodd" clip-rule="evenodd" d="M19.2402 54.9333C19.2402 58.1789 16.6084 60.813 13.3605 60.813C10.1126 60.813 7.48082 58.1789 7.48082 54.9333C7.48082 51.6855 10.1126 49.0513 13.3605 49.0513C16.6084 49.0513 19.2402 51.6855 19.2402 54.9333Z" stroke="#22243D" stroke-linecap="round" stroke-linejoin="round"/>
<path fill-rule="evenodd" clip-rule="evenodd" d="M44.8093 56.4445C44.8093 58.9606 42.77 61 40.2514 61C37.7376 61 35.6983 58.9606 35.6983 56.4445C35.6983 53.9283 37.7376 51.8889 40.2514 51.8889C42.77 51.8889 44.8093 53.9283 44.8093 56.4445Z" fill="white"/>
<path fill-rule="evenodd" clip-rule="evenodd" d="M44.8093 56.4445C44.8093 58.9606 42.77 61 40.2514 61C37.7376 61 35.6983 58.9606 35.6983 56.4445C35.6983 53.9283 37.7376 51.8889 40.2514 51.8889C42.77 51.8889 44.8093 53.9283 44.8093 56.4445Z" stroke="#22243D" stroke-linecap="round" stroke-linejoin="round"/>
<path d="M54.3299 20.3081V55.7964H71.9124" stroke="#22243D" stroke-linecap="round" stroke-linejoin="round"/>
<path fill-rule="evenodd" clip-rule="evenodd" d="M74.5876 44.9214L73.6057 43.9395L72.6238 44.9214" fill="#FCC0A2"/>
<path fill-rule="evenodd" clip-rule="evenodd" d="M69.8726 44.9214L68.8906 43.9395L67.9087 44.9214" fill="#FCC0A2"/>
<path fill-rule="evenodd" clip-rule="evenodd" d="M81.6566 51.9238C83.7513 51.9238 85.4507 50.2244 85.4507 48.1298V28.4784C85.4507 26.3807 83.7513 24.6813 81.6566 24.6813H62.0022C59.9075 24.6813 58.2081 26.3807 58.2081 28.4784V48.1298C58.2081 50.2244 59.9075 51.9238 62.0022 51.9238H81.6566Z" fill="#FCE1D0"/>
<path fill-rule="evenodd" clip-rule="evenodd" d="M62.0022 51.9238H81.6566C83.7513 51.9238 85.4507 50.2244 85.4507 48.1298V28.4784C85.4507 26.3807 83.7513 24.6813 81.6566 24.6813H62.0022C59.9075 24.6813 58.2081 26.3807 58.2081 28.4784V48.1298C58.2081 50.2244 59.9075 51.9238 62.0022 51.9238Z" stroke="#FF5500"/>
<path d="M78.4058 41.5609V45.7958" stroke="#FF5500" stroke-linecap="round"/>
<path d="M79.668 42.508L78.4033 41.2433L77.1386 42.508" stroke="#FF5500" stroke-linecap="round" stroke-linejoin="round"/>
<path d="M72.3311 41.5609V45.7958" stroke="#FF5500" stroke-linecap="round"/>
<path d="M73.5957 42.508L72.331 41.2433L71.0663 42.508" stroke="#FF5500" stroke-linecap="round" stroke-linejoin="round"/>
<path fill-rule="evenodd" clip-rule="evenodd" d="M74.5073 24.6815V34.8295H69.33V24.6815" fill="white"/>
<path d="M74.5073 24.6815V34.8295H69.33V24.6815" stroke="#FF5500"/>
</g>
</svg>
