<svg width="80" height="62" viewBox="0 0 80 62" fill="none" xmlns="http://www.w3.org/2000/svg">
<path fill-rule="evenodd" clip-rule="evenodd" d="M58.8989 50.7051H61.2029C62.4388 50.7051 63.4412 49.7027 63.4412 48.4668V12.1953C63.4412 10.958 62.4388 9.95703 61.2029 9.95703H58.9129" fill="white"/>
<path d="M58.8989 50.7051H61.2029C62.4388 50.7051 63.4412 49.7027 63.4412 48.4668V12.1953C63.4412 10.958 62.4388 9.95703 61.2029 9.95703H58.9129" stroke="#2C415B"/>
<path fill-rule="evenodd" clip-rule="evenodd" d="M17.5784 16.3973V51.3378C17.5784 52.803 18.7653 53.9899 20.2305 53.9899H55.4268C56.892 53.9899 58.079 52.803 58.079 51.3378V8.35843C58.079 6.89326 56.892 5.7063 55.4268 5.7063H27.8863" fill="white"/>
<path d="M17.5784 16.3973V51.3378C17.5784 52.803 18.7653 53.9899 20.2305 53.9899H55.4268C56.892 53.9899 58.079 52.803 58.079 51.3378V8.35843C58.079 6.89326 56.892 5.7063 55.4268 5.7063H27.8863" stroke="#2C415B"/>
<path fill-rule="evenodd" clip-rule="evenodd" d="M5.33008 13.4376V54.9378C5.33008 56.6406 6.71137 58.0233 8.41561 58.0233H49.3636C51.0678 58.0233 52.4491 56.6406 52.4491 54.9378V4.0859C52.4491 2.38026 51.0678 1.00037 49.3636 1.00037H17.3227" fill="white"/>
<path d="M5.33008 13.4376V54.9378C5.33008 56.6406 6.71137 58.0233 8.41561 58.0233H49.3636C51.0678 58.0233 52.4491 56.6406 52.4491 54.9378V4.0859C52.4491 2.38026 51.0678 1.00037 49.3636 1.00037H17.3227" stroke="#2C415B"/>
<path fill-rule="evenodd" clip-rule="evenodd" d="M5.33008 13.2471H17.5785V1L5.33008 13.2471Z" fill="white"/>
<path fill-rule="evenodd" clip-rule="evenodd" d="M5.33008 13.2471H17.5785V1L5.33008 13.2471Z" stroke="#2C415B" stroke-linecap="round" stroke-linejoin="round"/>
<path d="M44.7272 11.5979H26.8823" stroke="#C7D6E2"/>
<path d="M40.1809 48.6289H31.429" stroke="#FF5500" stroke-linecap="round" stroke-linejoin="round"/>
<path d="M44.7271 16.7933H12.5925" stroke="#C7D6E2"/>
<path d="M44.7271 21.9899H12.5925" stroke="#C7D6E2"/>
<path d="M44.7271 27.1863H12.5925" stroke="#C7D6E2"/>
<path fill-rule="evenodd" clip-rule="evenodd" d="M7.75656 43.6686L4.77588 46.6507L7.75656 43.6686Z" fill="#FCE1D0"/>
<path fill-rule="evenodd" clip-rule="evenodd" d="M47.3332 44.6168L39.915 48.6292L44.1092 41.3928" fill="#FCE1D0"/>
<path d="M47.3332 44.6168L39.915 48.6292L44.1092 41.3928" stroke="#FF5500" stroke-linecap="round" stroke-linejoin="round"/>
<path fill-rule="evenodd" clip-rule="evenodd" d="M76.856 15.4375L77.0866 17.3696L70.4822 23.9727" fill="#FCE1D0"/>
<path d="M76.856 15.4375L77.0866 17.3696L70.4822 23.9727" stroke="#FF5500" stroke-linecap="round" stroke-linejoin="round"/>
<path fill-rule="evenodd" clip-rule="evenodd" d="M75.7416 12.5062L76.038 12.8026C76.4351 13.1997 77.0782 13.1997 77.4738 12.8026L78.6356 11.6408C79.0327 11.2438 79.0327 10.6007 78.6356 10.205L78.3392 9.90863C77.9436 9.51158 77.3005 9.51158 76.9034 9.90863L75.7416 11.0704C75.3446 11.4661 75.3446 12.1092 75.7416 12.5062Z" fill="#FCE1D0"/>
<path fill-rule="evenodd" clip-rule="evenodd" d="M75.7416 12.5062L76.038 12.8026C76.4351 13.1997 77.0782 13.1997 77.4738 12.8026L78.6356 11.6408C79.0327 11.2438 79.0327 10.6007 78.6356 10.205L78.3392 9.90863C77.9436 9.51158 77.3005 9.51158 76.9034 9.90863L75.7416 11.0704C75.3446 11.4661 75.3446 12.1092 75.7416 12.5062Z" stroke="#FF5500"/>
<path fill-rule="evenodd" clip-rule="evenodd" d="M44.4772 42.4437L46.1004 44.0668C46.5925 44.559 47.3894 44.559 47.8829 44.0668L77.7177 14.2307C78.2098 13.7386 78.2098 12.9403 77.7177 12.4482L76.0959 10.825C75.6038 10.3329 74.8055 10.3329 74.3134 10.825L44.4772 40.6612C43.9851 41.1533 43.9851 41.9516 44.4772 42.4437Z" fill="#FCE1D0"/>
<path fill-rule="evenodd" clip-rule="evenodd" d="M44.4772 42.4437L46.1004 44.0669C46.5925 44.559 47.3894 44.559 47.8829 44.0669L77.7177 14.2307C78.2098 13.7386 78.2098 12.9403 77.7177 12.4482L76.0959 10.825C75.6038 10.3329 74.8055 10.3329 74.3134 10.825L44.4772 40.6612C43.9851 41.1533 43.9851 41.9516 44.4772 42.4437Z" stroke="#FF5500"/>
<path fill-rule="evenodd" clip-rule="evenodd" d="M23.927 60.5371C25.9751 60.5371 27.6367 58.8817 27.6367 56.8413V37.6988C27.6367 35.6554 25.9751 34 23.927 34H4.70975C2.6617 34 1.00006 35.6554 1.00006 37.6988V56.8413C1.00006 58.8817 2.6617 60.5371 4.70975 60.5371H23.927Z" fill="#FCE1D0"/>
<path fill-rule="evenodd" clip-rule="evenodd" d="M4.70975 60.5371H23.927C25.9751 60.5371 27.6367 58.8817 27.6367 56.8413V37.6988C27.6367 35.6554 25.9751 34 23.927 34H4.70975C2.6617 34 1.00006 35.6554 1.00006 37.6988V56.8413C1.00006 58.8817 2.6617 60.5371 4.70975 60.5371Z" stroke="#FF5500"/>
<path d="M20.7485 50.4426V54.5679" stroke="#FF5500" stroke-linecap="round"/>
<path d="M21.9824 51.3652L20.7458 50.1333L19.5093 51.3652" stroke="#FF5500" stroke-linecap="round" stroke-linejoin="round"/>
<path d="M14.8088 50.4426V54.5679" stroke="#FF5500" stroke-linecap="round"/>
<path d="M16.0459 51.3652L14.8093 50.1333L13.5728 51.3652" stroke="#FF5500" stroke-linecap="round" stroke-linejoin="round"/>
<path fill-rule="evenodd" clip-rule="evenodd" d="M16.9368 34.0001V43.8852H11.8746V34.0001" fill="white"/>
<path d="M16.9368 34.0001V43.8852H11.8746V34.0001" stroke="#FF5500"/>
</svg>
