<svg width="18" height="18" viewBox="0 0 18 18" fill="none" xmlns="http://www.w3.org/2000/svg">
<g opacity="0.3">
<path d="M14.2741 8.47255H14.7747C14.6655 7.26869 14.1889 6.16992 13.4556 5.29066L13.1025 5.64374C12.8965 5.84972 12.5628 5.84972 12.3568 5.64374C12.1508 5.43776 12.1508 5.10402 12.3568 4.89804L12.7099 4.54496C11.8306 3.8116 10.7318 3.33499 9.52797 3.22583V3.72645C9.52797 4.01794 9.29211 4.2538 9.00062 4.2538C8.70914 4.2538 8.47328 4.01794 8.47328 3.72645V3.22583C7.26943 3.33499 6.17065 3.81164 5.29139 4.54496L5.64447 4.89804C5.85045 5.10402 5.85045 5.43776 5.64447 5.64374C5.43849 5.84972 5.10475 5.84972 4.89877 5.64374L4.5457 5.29066C3.81234 6.16992 3.33572 7.26869 3.22656 8.47255H3.72719C4.01867 8.47255 4.25453 8.70841 4.25453 8.99989C4.25453 9.29137 4.01867 9.52724 3.72719 9.52724H3.22656C3.33572 10.7311 3.81237 11.8299 4.5457 12.7091L4.89877 12.356C5.10475 12.1501 5.43849 12.1501 5.64447 12.356C5.85045 12.562 5.85045 12.8958 5.64447 13.1017L5.29139 13.4548C6.17065 14.1881 7.26946 14.6648 8.47328 14.774V14.2733C8.47328 13.9818 8.70914 13.746 9.00062 13.746C9.29211 13.746 9.52797 13.9818 9.52797 14.2733V14.774C10.7318 14.6648 11.8306 14.1881 12.7099 13.4548L12.3568 13.1017C12.1508 12.8958 12.1508 12.562 12.3568 12.356C12.5628 12.1501 12.8965 12.1501 13.1025 12.356L13.4556 12.7091C14.1889 11.8299 14.6655 10.7311 14.7747 9.52724H14.2741C13.9826 9.52724 13.7467 9.29137 13.7467 8.99989C13.7467 8.70841 13.9826 8.47255 14.2741 8.47255ZM11.4828 11.4821C11.2769 11.6881 10.9431 11.6881 10.7371 11.4821L8.62776 9.37272C8.5289 9.27387 8.47328 9.13995 8.47328 8.99989V5.83583C8.47328 5.54435 8.70914 5.30849 9.00062 5.30849C9.29211 5.30849 9.52797 5.54435 9.52797 5.83583V8.78154L11.4828 10.7364C11.6888 10.9424 11.6888 11.2761 11.4828 11.4821Z" fill="black"/>
<path d="M9 0C4.05668 0 0 4.05668 0 9C0 13.9433 4.05668 18 9 18C13.9433 18 18 13.9433 18 9C18 4.05668 13.9433 0 9 0ZM9 15.8555C5.23695 15.8555 2.14453 12.7952 2.14453 9C2.14453 5.29513 5.16396 2.14453 9 2.14453C12.763 2.14453 15.8555 5.20478 15.8555 9C15.8555 12.763 12.7953 15.8555 9 15.8555Z" fill="black"/>
</g>
</svg>
