<svg width="86" height="72" viewBox="0 0 86 72" fill="none" xmlns="http://www.w3.org/2000/svg">
<path d="M72.0181 21.3721C71.7329 22.9408 70.5635 26.0782 64.745 26.0782C64.745 24.3669 64.745 23.3686 64.745 23.0834C63.0337 24.7947 61.1513 26.0782 57.0442 26.0782C57.0442 24.3669 57.0442 23.3686 57.0442 23.0834C56.1885 24.3669 54.2205 25.7359 51.4824 26.0782" stroke="#2C415B"/>
<path d="M51.4824 21.3721V31.6399C51.4824 37.3107 56.0795 41.9077 61.7503 41.9077V41.9077C67.421 41.9077 72.0181 37.3107 72.0181 31.6399V21.3721" stroke="#2C415B"/>
<path d="M48.0605 24.7949V19.661C48.0605 12.1 54.19 5.97056 61.751 5.97056V5.97056C69.312 5.97056 75.4414 12.1 75.4414 19.661V24.7949" stroke="#2C415B"/>
<path d="M51.9124 23.939L51.0567 23.939C47.985 23.939 45.495 26.429 45.495 29.5007V29.5007C45.495 32.5724 47.985 35.0625 51.0567 35.0625L51.9124 35.0625M71.5924 23.939L72.448 23.939C75.5197 23.939 78.0098 26.429 78.0098 29.5007V29.5007C78.0098 32.5724 75.5197 35.0625 72.448 35.0625L71.5924 35.0625L67.7419 35.0625M67.7419 35.0625V35.0625C67.7419 36.0076 66.9757 36.7738 66.0306 36.7738C65.9585 36.7738 65.887 36.7738 65.8164 36.7738C64.9894 36.7738 64.3193 35.729 64.3193 34.902V34.902C64.3193 34.075 64.9897 33.779 65.8167 33.779L66.4585 33.779C67.1673 33.779 67.7419 34.3536 67.7419 35.0625V35.0625Z" stroke="#2C415B"/>
<path d="M11.2676 70.9998H38.2206M67.3128 44.4746V40.1963M67.3128 44.4746L61.7511 48.7528M67.3128 44.4746L70.9927 45.6414M56.1893 40.1963V44.4746M56.1893 44.4746L61.7511 48.7528M56.1893 44.4746L52.3389 45.6414M42.0711 48.7528L52.3389 45.6414M38.2206 65.8659V70.9998M38.2206 70.9998H48.0606M48.0606 55.598V70.9998M48.0606 70.9998H56.6172M75.4415 55.598V70.9998M75.4415 70.9998H84.8537V57.3562C84.8537 52.9977 82.0308 49.1412 77.8762 47.8239L70.9927 45.6414M75.4415 70.9998H67.2002M61.7511 48.7528L56.6172 51.7251M61.7511 48.7528L66.3446 51.7251M52.3389 45.6414L53.6224 53.4589L56.6172 51.7251M70.9927 45.6414L69.0241 53.4589L66.3446 51.7251M56.6172 51.7251L59.612 55.598L56.6172 70.9998M56.6172 70.9998H67.2002M66.3446 51.7251L63.8902 55.598L67.2002 70.9998" stroke="#2C415B"/>
<path d="M56.6172 51.7252L61.7511 48.7529L66.3446 51.7252L63.8902 55.5982L67.2003 70.9999H56.6172L59.612 55.5982L56.6172 51.7252Z" fill="#FCE1D0" stroke="#FF5500"/>
<path d="M38.0713 35.0625H5C2.79086 35.0625 1 36.8534 1 39.0625V61.866C1 64.0751 2.79087 65.866 5 65.866H26.6696H38.0713C40.2805 65.866 42.0713 64.0751 42.0713 61.866V39.0625C42.0713 36.8534 40.2805 35.0625 38.0713 35.0625Z" fill="white" stroke="#2C415B"/>
<path d="M16.4017 65.866H5C2.79086 65.866 1 64.0751 1 61.866V39.0625C1 36.8534 2.79086 35.0625 5 35.0625H38.0713C40.2805 35.0625 42.0713 36.8534 42.0713 39.0625V61.866C42.0713 64.0751 40.2805 65.866 38.0713 65.866H26.6696" stroke="#2C415B"/>
<path d="M16.4004 60.4536C16.4004 58.2445 18.1913 56.4536 20.4004 56.4536H22.6682C24.8774 56.4536 26.6682 58.2445 26.6682 60.4536V70.9997H16.4004V60.4536Z" fill="white" stroke="#2C415B"/>
<path d="M21.4173 1C25.4085 1 29.0927 2.61184 31.7023 5.29823C34.312 7.90788 36.0006 11.5921 36.0006 15.5833C36.0006 19.5745 34.3887 23.2587 31.7023 25.8684C29.0927 28.478 25.4085 30.1666 21.4173 30.1666C17.4261 30.1666 13.7419 28.5548 11.1322 25.8684C8.52258 23.2587 6.83398 19.5745 6.83398 15.5833C6.83398 11.5921 8.44582 7.90788 11.1322 5.29823C13.7419 2.68859 17.4261 1 21.4173 1Z" fill="#FCE1D0" stroke="#FF5500"/>
<path d="M19.6673 15.2917V15.2917C19.6673 16.5146 18.8945 17.6039 17.7403 18.0079L16.7506 18.3542C15.0037 18.9657 13.834 20.6144 13.834 22.4652V24.9167H29.2923V22.4652C29.2923 20.6144 28.1226 18.9657 26.3756 18.3542L25.386 18.0079C24.2318 17.6039 23.459 16.5146 23.459 15.2917V15.2917" stroke="#FF5500"/>
<rect x="17.834" y="6.1665" width="7.16665" height="9.49997" rx="3.58332" stroke="#FF5500"/>
</svg>
