<svg width="142" height="102" viewBox="0 0 142 102" fill="none" xmlns="http://www.w3.org/2000/svg">
<path d="M71.1729 92.2686H99.429" stroke="#2C415B" stroke-linecap="round" stroke-linejoin="round"/>
<path d="M20.6992 92.2686H26.8914" stroke="#2C415B" stroke-linecap="round" stroke-linejoin="round"/>
<path d="M17.4609 85.791H25.2721" stroke="#2C415B" stroke-linecap="round" stroke-linejoin="round"/>
<path d="M11.9346 71.5635H22.9838" stroke="#2C415B" stroke-linecap="round" stroke-linejoin="round"/>
<path d="M2.48828 66.7051H13.5375" stroke="#2C415B" stroke-linecap="round" stroke-linejoin="round"/>
<path fill-rule="evenodd" clip-rule="evenodd" d="M45.1003 92.2685C45.1003 97.0911 41.1915 101 36.3689 101C31.5485 101 27.6396 97.0911 27.6396 92.2685C27.6396 87.4459 31.5485 83.5371 36.3689 83.5371C41.1915 83.5371 45.1003 87.4459 45.1003 92.2685Z" fill="white"/>
<path fill-rule="evenodd" clip-rule="evenodd" d="M45.1003 92.2685C45.1003 97.0911 41.1915 101 36.3689 101C31.5485 101 27.6396 97.0911 27.6396 92.2685C27.6396 87.4459 31.5485 83.5371 36.3689 83.5371C41.1915 83.5371 45.1003 87.4459 45.1003 92.2685Z" stroke="#2C415B"/>
<path fill-rule="evenodd" clip-rule="evenodd" d="M40.2557 92.2685C40.2557 94.4142 38.5163 96.1536 36.3705 96.1536C34.2248 96.1536 32.4854 94.4142 32.4854 92.2685C32.4854 90.1227 34.2248 88.3833 36.3705 88.3833C38.5163 88.3833 40.2557 90.1227 40.2557 92.2685Z" fill="white"/>
<path fill-rule="evenodd" clip-rule="evenodd" d="M40.2557 92.2685C40.2557 94.4142 38.5163 96.1536 36.3705 96.1536C34.2248 96.1536 32.4854 94.4142 32.4854 92.2685C32.4854 90.1227 34.2248 88.3833 36.3705 88.3833C38.5163 88.3833 40.2557 90.1227 40.2557 92.2685Z" stroke="#2C415B"/>
<path fill-rule="evenodd" clip-rule="evenodd" d="M65.656 92.2685C65.656 97.0911 61.7472 101 56.9246 101C52.1041 101 48.1953 97.0911 48.1953 92.2685C48.1953 87.4459 52.1041 83.5371 56.9246 83.5371C61.7472 83.5371 65.656 87.4459 65.656 92.2685Z" fill="white"/>
<path fill-rule="evenodd" clip-rule="evenodd" d="M65.656 92.2685C65.656 97.0911 61.7472 101 56.9246 101C52.1041 101 48.1953 97.0911 48.1953 92.2685C48.1953 87.4459 52.1041 83.5371 56.9246 83.5371C61.7472 83.5371 65.656 87.4459 65.656 92.2685Z" stroke="#2C415B"/>
<path fill-rule="evenodd" clip-rule="evenodd" d="M60.8109 92.2685C60.8109 94.4142 59.0715 96.1536 56.9257 96.1536C54.7799 96.1536 53.0405 94.4142 53.0405 92.2685C53.0405 90.1227 54.7799 88.3833 56.9257 88.3833C59.0715 88.3833 60.8109 90.1227 60.8109 92.2685Z" fill="white"/>
<path fill-rule="evenodd" clip-rule="evenodd" d="M60.8109 92.2685C60.8109 94.4142 59.0715 96.1536 56.9257 96.1536C54.7799 96.1536 53.0405 94.4142 53.0405 92.2685C53.0405 90.1227 54.7799 88.3833 56.9257 88.3833C59.0715 88.3833 60.8109 90.1227 60.8109 92.2685Z" stroke="#2C415B"/>
<path fill-rule="evenodd" clip-rule="evenodd" d="M120.824 92.2685C120.824 97.0911 116.916 101 112.093 101C107.273 101 103.364 97.0911 103.364 92.2685C103.364 87.4459 107.273 83.5371 112.093 83.5371C116.916 83.5371 120.824 87.4459 120.824 92.2685Z" fill="white"/>
<path fill-rule="evenodd" clip-rule="evenodd" d="M120.824 92.2685C120.824 97.0911 116.916 101 112.093 101C107.273 101 103.364 97.0911 103.364 92.2685C103.364 87.4459 107.273 83.5371 112.093 83.5371C116.916 83.5371 120.824 87.4459 120.824 92.2685Z" stroke="#2C415B"/>
<path fill-rule="evenodd" clip-rule="evenodd" d="M115.978 92.2685C115.978 94.4142 114.239 96.1536 112.093 96.1536C109.947 96.1536 108.21 94.4142 108.21 92.2685C108.21 90.1227 109.947 88.3833 112.093 88.3833C114.239 88.3833 115.978 90.1227 115.978 92.2685Z" fill="white"/>
<path fill-rule="evenodd" clip-rule="evenodd" d="M115.978 92.2685C115.978 94.4142 114.239 96.1536 112.093 96.1536C109.947 96.1536 108.21 94.4142 108.21 92.2685C108.21 90.1227 109.947 88.3833 112.093 88.3833C114.239 88.3833 115.978 90.1227 115.978 92.2685Z" stroke="#2C415B"/>
<path d="M124.549 92.2683H134.805C137.189 92.2683 139.122 90.3354 139.122 87.951L140.741 78.3036C140.741 76.6545 139.806 75.1516 138.327 74.427L123.233 71.0256C122.175 70.5053 121.375 69.5808 121.019 68.4585L115.366 57.1792C114.968 55.9343 113.814 55.0894 112.506 55.0894H96.4992C95.4349 55.0894 94.5727 55.9537 94.5727 57.018V83.0596C94.5727 84.1625 93.6762 85.0591 92.571 85.0591H69.3159" stroke="#2C415B" stroke-linecap="round" stroke-linejoin="round"/>
<path fill-rule="evenodd" clip-rule="evenodd" d="M87.9348 80.0723H19.1284C18.206 80.0723 17.46 79.3241 17.46 78.4039V37.5376C17.46 36.6174 18.206 35.8691 19.1284 35.8691H87.9348C88.8572 35.8691 89.6011 36.6174 89.6011 37.5376V78.4039C89.6011 79.3241 88.8572 80.0723 87.9348 80.0723Z" fill="white"/>
<path fill-rule="evenodd" clip-rule="evenodd" d="M87.9348 80.0723H19.1284C18.206 80.0723 17.46 79.3241 17.46 78.4039V37.5376C17.46 36.6174 18.206 35.8691 19.1284 35.8691H87.9348C88.8572 35.8691 89.6011 36.6174 89.6011 37.5376V78.4039C89.6011 79.3241 88.8572 80.0723 87.9348 80.0723Z" stroke="#2C415B"/>
<path fill-rule="evenodd" clip-rule="evenodd" d="M51.3932 37.2645C51.3932 51.1797 40.1119 62.4611 26.1966 62.4611C12.2814 62.4611 1 51.1797 1 37.2645C1 23.3471 12.2814 12.0679 26.1966 12.0679C40.1119 12.0679 51.3932 23.3471 51.3932 37.2645Z" fill="#FCE1D0"/>
<path fill-rule="evenodd" clip-rule="evenodd" d="M51.3932 37.2645C51.3932 51.1797 40.1119 62.4611 26.1966 62.4611C12.2814 62.4611 1 51.1797 1 37.2645C1 23.3471 12.2814 12.0679 26.1966 12.0679C40.1119 12.0679 51.3932 23.3471 51.3932 37.2645Z" stroke="#FF5500"/>
<path fill-rule="evenodd" clip-rule="evenodd" d="M43.5865 37.2645C43.5865 46.8064 35.8506 54.5445 26.3064 54.5445C16.7623 54.5445 9.02637 46.8064 9.02637 37.2645C9.02637 27.7203 16.7623 19.9844 26.3064 19.9844" fill="#FCE1D0"/>
<path d="M43.5865 37.2645C43.5865 46.8064 35.8506 54.5445 26.3064 54.5445C16.7623 54.5445 9.02637 46.8064 9.02637 37.2645C9.02637 27.7203 16.7623 19.9844 26.3064 19.9844" stroke="#FF5500" stroke-linecap="round" stroke-linejoin="round"/>
<path fill-rule="evenodd" clip-rule="evenodd" d="M44.6616 19.3031L39.6777 15.132L43.851 10.146L48.8349 14.3193L44.6616 19.3031Z" fill="#FCE1D0"/>
<path fill-rule="evenodd" clip-rule="evenodd" d="M44.6616 19.3031L39.6777 15.132L43.851 10.146L48.8349 14.3193L44.6616 19.3031Z" stroke="#FF5500"/>
<path fill-rule="evenodd" clip-rule="evenodd" d="M55.606 7.6265C55.606 11.2859 52.6389 14.253 48.9795 14.253C45.3201 14.253 42.353 11.2859 42.353 7.6265C42.353 3.96709 45.3201 1 48.9795 1C52.6389 1 55.606 3.96709 55.606 7.6265Z" fill="#FCE1D0"/>
<path fill-rule="evenodd" clip-rule="evenodd" d="M55.606 7.6265C55.606 11.2859 52.6389 14.253 48.9795 14.253C45.3201 14.253 42.353 11.2859 42.353 7.6265C42.353 3.96709 45.3201 1 48.9795 1C52.6389 1 55.606 3.96709 55.606 7.6265Z" stroke="#FF5500"/>
<path fill-rule="evenodd" clip-rule="evenodd" d="M26.6273 33.6916L36.9842 23.769C37.4529 23.3025 38.2032 23.8787 37.8743 24.4506L28.5817 35.3837C28.4247 35.6589 28.0721 35.7513 27.7991 35.5858L26.7348 34.5774C26.4187 34.3882 26.365 33.9517 26.6273 33.6916Z" fill="#FF5500"/>
<path fill-rule="evenodd" clip-rule="evenodd" d="M28.362 38.3427L30.813 47.1473C30.9485 47.6289 30.2884 47.9127 30.0283 47.4827L25.3927 39.5855C25.2702 39.3791 25.339 39.1103 25.5475 38.992L27.7341 38.0847C27.9771 37.945 28.2867 38.0718 28.362 38.3427Z" fill="#FF5500"/>
<path fill-rule="evenodd" clip-rule="evenodd" d="M28.1118 36.5634C28.1118 37.9781 26.9637 39.1262 25.5489 39.1262C24.132 39.1262 22.9839 37.9781 22.9839 36.5634C22.9839 35.1465 24.132 34.0005 25.5489 34.0005C26.9637 34.0005 28.1118 35.1465 28.1118 36.5634Z" fill="#FCE1D0"/>
<path fill-rule="evenodd" clip-rule="evenodd" d="M28.1118 36.5634C28.1118 37.9781 26.9637 39.1262 25.5489 39.1262C24.132 39.1262 22.9839 37.9781 22.9839 36.5634C22.9839 35.1465 24.132 34.0005 25.5489 34.0005C26.9637 34.0005 28.1118 35.1465 28.1118 36.5634Z" stroke="#FF5500" stroke-linecap="round" stroke-linejoin="round"/>
<path d="M40.2109 38.5988L43.1157 35.6941C43.2791 35.5306 43.5607 35.5457 43.7435 35.7263L46.9643 38.9471" stroke="#FF5500" stroke-linecap="round" stroke-linejoin="round"/>
<path fill-rule="evenodd" clip-rule="evenodd" d="M113.671 71.2774H101.304C100.269 71.2774 99.4287 70.3679 99.4287 69.2456V62.647C99.4287 61.5247 100.269 60.6152 101.304 60.6152H110.437C111.207 60.6152 111.901 61.1291 112.183 61.9074L115.417 68.506C115.894 69.839 114.989 71.2774 113.671 71.2774Z" stroke="#2C415B" stroke-linecap="round" stroke-linejoin="round"/>
<mask id="mask0" mask-type="alpha" maskUnits="userSpaceOnUse" x="62" y="43" width="27" height="30">
<path fill-rule="evenodd" clip-rule="evenodd" d="M62.1289 43.0752H88.4105V72.3409H62.1289V43.0752Z" fill="white"/>
</mask>
<g mask="url(#mask0)">
<path fill-rule="evenodd" clip-rule="evenodd" d="M89.7348 48.4849C89.6359 48.5301 89.5391 48.5774 89.4445 48.6268C87.7589 49.5127 85.798 49.6868 84.022 49.1386C82.7385 48.7429 81.7086 47.8378 81.1646 46.6488C81.1539 46.6273 81.1453 46.6079 81.1367 46.5886C79.6682 43.471 75.7034 42.1723 72.4439 43.744C69.1221 45.3458 67.6944 49.2203 69.2554 52.3529C69.2769 52.3981 69.3005 52.4454 69.3242 52.4905C69.98 53.7268 70.0531 55.1974 69.5628 56.5477C68.9694 58.1839 67.7009 59.5191 66.0797 60.2608C65.9507 60.3189 65.826 60.3812 65.6992 60.4457C62.5407 62.1249 61.2335 65.9456 62.7772 68.9815C64.3597 72.0884 68.3072 73.2601 71.5775 71.5594C74.6779 69.949 76.0453 66.2681 74.6693 63.2408C74.6026 63.0968 74.5338 62.9549 74.4585 62.8194C74.0414 62.0669 73.8436 61.2241 73.8608 60.3726C73.7469 57.9065 75.1401 55.4404 77.589 54.2213C80.1777 52.9334 83.1642 53.4279 85.0584 55.2404C85.6281 55.7328 86.0904 56.3391 86.4172 57.0293C86.4409 57.0809 86.4645 57.1303 86.4903 57.1798C87.9975 60.1404 91.9171 61.3703 95.0648 59.8695C98.3931 58.2849 99.8379 54.4299 98.3135 51.2972C96.8235 48.2291 92.9814 46.967 89.7348 48.4849Z" fill="white"/>
</g>
<mask id="mask1" mask-type="alpha" maskUnits="userSpaceOnUse" x="62" y="43" width="27" height="30">
<path fill-rule="evenodd" clip-rule="evenodd" d="M72.4433 43.7453C69.1215 45.3471 67.6938 49.2194 69.2526 52.352C69.2763 52.3993 69.2999 52.4466 69.3257 52.4896C69.9794 53.7281 70.0525 55.1966 69.5622 56.5468C68.9688 58.183 67.7003 59.5204 66.077 60.2621C65.9523 60.3202 65.8233 60.3825 65.6986 60.447C62.538 62.1241 61.2329 65.9448 62.7766 68.9807C64.3569 72.0875 68.3045 73.2614 71.5747 71.5607C74.6773 69.9503 76.0447 66.2694 74.6687 63.2421C74.6042 63.0959 74.531 62.9583 74.4558 62.8207C74.0408 62.0682 73.843 61.2232 73.8581 60.3718C73.7463 57.9078 75.1395 55.4417 77.5884 54.2226C80.1771 52.9347 83.1636 53.4271 85.0578 55.2396C85.6275 55.7319 86.0877 56.3404 86.4166 57.0306C86.4403 57.08 86.4661 57.1316 86.4897 57.1789C86.9434 58.0669 87.6099 58.7979 88.4097 59.3484V49.071C86.9864 49.5527 85.4448 49.5785 84.0214 49.1398C82.7379 48.7442 81.708 47.8391 81.164 46.6479C81.1511 46.6264 81.1447 46.6092 81.1361 46.5877C80.0933 44.3732 77.7862 43.0767 75.3696 43.0767C74.387 43.0767 73.3872 43.2917 72.4433 43.7453Z" fill="white"/>
</mask>
<g mask="url(#mask1)">
<path fill-rule="evenodd" clip-rule="evenodd" d="M65.5582 74.5685L101.11 56.8756L90.1807 34.917L54.6294 52.6099L65.5582 74.5685Z" fill="white"/>
</g>
<mask id="mask2" mask-type="alpha" maskUnits="userSpaceOnUse" x="62" y="43" width="27" height="30">
<path fill-rule="evenodd" clip-rule="evenodd" d="M72.4437 43.7453C69.1218 45.3471 67.6942 49.2194 69.253 52.352C69.2766 52.3993 69.3003 52.4466 69.3261 52.4896C69.9797 53.7281 70.0528 55.1966 69.5626 56.5468C68.9692 58.183 67.7006 59.5204 66.0773 60.2621C65.9526 60.3202 65.8236 60.3825 65.6989 60.447C62.5921 62.0961 61.2784 65.8158 62.6996 68.8259L62.8049 69.0344C64.4024 72.1004 68.3241 73.2528 71.575 71.5607C74.6776 69.9503 76.045 66.2694 74.669 63.2421C74.6045 63.0959 74.5314 62.9583 74.4561 62.8207C74.0412 62.0682 73.8434 61.2232 73.8584 60.3718C73.7466 57.9078 75.1398 55.4417 77.5888 54.2226C80.1775 52.9347 83.1639 53.4271 85.0581 55.2396C85.6279 55.7319 86.088 56.3404 86.4169 57.0306C86.4406 57.08 86.4664 57.1316 86.49 57.1789C86.9416 58.0669 87.6124 58.7979 88.4101 59.3484V49.071C86.9867 49.5527 85.4451 49.5785 84.0218 49.1398C82.7382 48.7442 81.7083 47.8391 81.1643 46.6479C81.1514 46.6264 81.145 46.6092 81.1364 46.5877C80.0914 44.3753 77.7866 43.0767 75.3699 43.0767C74.3873 43.0767 73.3875 43.2917 72.4437 43.7453Z" fill="white"/>
</mask>
<g mask="url(#mask2)">
<path fill-rule="evenodd" clip-rule="evenodd" d="M62.9275 82.3901L108.92 59.5005L92.7919 27.0947L46.7998 49.9843L62.9275 82.3901Z" fill="white"/>
</g>
<mask id="mask3" mask-type="alpha" maskUnits="userSpaceOnUse" x="62" y="43" width="27" height="30">
<path fill-rule="evenodd" clip-rule="evenodd" d="M72.4437 43.7453C69.1218 45.3471 67.6942 49.2194 69.253 52.352C69.2766 52.3993 69.3003 52.4466 69.3261 52.4896C69.9797 53.7281 70.0528 55.1966 69.5626 56.5468C68.9692 58.183 67.7006 59.5204 66.0773 60.2621C65.9526 60.3202 65.8236 60.3825 65.6989 60.447C62.5921 62.0961 61.2784 65.8158 62.6996 68.8259L62.8049 69.0344C64.4024 72.1004 68.3241 73.2528 71.575 71.5607C74.6776 69.9503 76.045 66.2694 74.669 63.2421C74.6045 63.0959 74.5314 62.9583 74.4561 62.8207C74.0412 62.0682 73.8434 61.2232 73.8584 60.3718C73.7466 57.9078 75.1398 55.4417 77.5888 54.2226C80.1775 52.9347 83.1639 53.4271 85.0581 55.2396C85.6279 55.7319 86.088 56.3404 86.4169 57.0306C86.4406 57.08 86.4664 57.1316 86.49 57.1789C86.9416 58.0669 87.6124 58.7979 88.4101 59.3484V49.071C86.9867 49.5527 85.4451 49.5785 84.0218 49.1398C82.7382 48.7442 81.7083 47.8391 81.1643 46.6479C81.1514 46.6264 81.145 46.6092 81.1364 46.5877C80.0914 44.3753 77.7866 43.0767 75.3699 43.0767C74.3873 43.0767 73.3875 43.2917 72.4437 43.7453Z" fill="white"/>
</mask>
<g mask="url(#mask3)">
<path fill-rule="evenodd" clip-rule="evenodd" d="M62.9274 82.3901L108.92 59.5005L92.7919 27.0947L46.7998 49.9843L62.9274 82.3901Z" stroke="#C7D6E2"/>
</g>
<mask id="mask4" mask-type="alpha" maskUnits="userSpaceOnUse" x="62" y="43" width="27" height="30">
<path fill-rule="evenodd" clip-rule="evenodd" d="M72.4433 43.7453C69.1215 45.3471 67.6938 49.2194 69.2526 52.352C69.2763 52.3993 69.2999 52.4466 69.3257 52.4896C69.9794 53.7281 70.0525 55.1966 69.5622 56.5468C68.9688 58.183 67.7003 59.5204 66.077 60.2621C65.9523 60.3202 65.8233 60.3825 65.6986 60.447C62.538 62.1241 61.2329 65.9448 62.7766 68.9807C64.3569 72.0875 68.3045 73.2614 71.5747 71.5607C74.6773 69.9503 76.0447 66.2694 74.6687 63.2421C74.6042 63.0959 74.531 62.9583 74.4558 62.8207C74.0408 62.0682 73.843 61.2232 73.8581 60.3718C73.7463 57.9078 75.1395 55.4417 77.5884 54.2226C80.1771 52.9347 83.1636 53.4271 85.0578 55.2396C85.6275 55.7319 86.0877 56.3404 86.4166 57.0306C86.4403 57.08 86.4661 57.1316 86.4897 57.1789C86.9434 58.0669 87.6099 58.7979 88.4097 59.3484V49.071C86.9864 49.5527 85.4448 49.5785 84.0214 49.1398C82.7379 48.7442 81.708 47.8391 81.164 46.6479C81.1511 46.6264 81.1447 46.6092 81.1361 46.5877C80.0933 44.3732 77.7862 43.0767 75.3696 43.0767C74.387 43.0767 73.3872 43.2917 72.4433 43.7453Z" fill="white"/>
</mask>
<g mask="url(#mask4)">
<path fill-rule="evenodd" clip-rule="evenodd" d="M65.5582 74.5685L101.11 56.8756L90.1807 34.917L54.6294 52.6099L65.5582 74.5685Z" stroke="#C7D6E2"/>
</g>
</svg>
