<svg width="130" height="102" viewBox="0 0 130 102" fill="none" xmlns="http://www.w3.org/2000/svg">
<path fill-rule="evenodd" clip-rule="evenodd" d="M97.0142 79.7469H100.664C102.622 79.7469 104.21 78.1588 104.21 76.2008V18.7365C104.21 16.7763 102.622 15.1904 100.664 15.1904H97.0363" fill="white"/>
<path d="M97.0142 79.7469H100.664C102.622 79.7469 104.21 78.1588 104.21 76.2008V18.7365C104.21 16.7763 102.622 15.1904 100.664 15.1904H97.0363" stroke="#2C415B"/>
<path fill-rule="evenodd" clip-rule="evenodd" d="M31.5508 25.3936V80.7492C31.5508 83.0705 33.4313 84.951 35.7525 84.951H91.5134C93.8347 84.951 95.7152 83.0705 95.7152 80.7492V12.6578C95.7152 10.3365 93.8347 8.45605 91.5134 8.45605H47.8815" fill="white"/>
<path d="M31.5508 25.3936V80.7492C31.5508 83.0705 33.4313 84.951 35.7525 84.951H91.5134C93.8347 84.951 95.7152 83.0705 95.7152 80.7492V12.6578C95.7152 10.3365 93.8347 8.45605 91.5134 8.45605H47.8815" stroke="#2C415B"/>
<path fill-rule="evenodd" clip-rule="evenodd" d="M12.1465 20.7045V86.4526C12.1465 89.1504 14.3348 91.341 17.0348 91.341H81.908C84.608 91.341 86.7964 89.1504 86.7964 86.4526V5.88884C86.7964 3.18663 84.608 1.00049 81.908 1.00049H31.1462" fill="white"/>
<path d="M12.1465 20.7045V86.4526C12.1465 89.1504 14.3348 91.341 17.0348 91.341H81.908C84.608 91.341 86.7964 89.1504 86.7964 86.4526V5.88884C86.7964 3.18663 84.608 1.00049 81.908 1.00049H31.1462" stroke="#2C415B"/>
<path fill-rule="evenodd" clip-rule="evenodd" d="M12.1465 20.4028H31.5515V1L12.1465 20.4028Z" fill="white"/>
<path fill-rule="evenodd" clip-rule="evenodd" d="M12.1465 20.4028H31.5515V1L12.1465 20.4028Z" stroke="#2C415B" stroke-linecap="round" stroke-linejoin="round"/>
<path d="M74.5624 17.79H46.291" stroke="#C7D6E2"/>
<path d="M67.3596 76.4575H53.4941" stroke="#FF5500" stroke-linecap="round" stroke-linejoin="round"/>
<path d="M74.5621 26.021H23.6519" stroke="#C7D6E2"/>
<path d="M74.5621 34.2539H23.6519" stroke="#C7D6E2"/>
<path d="M74.5621 42.4863H23.6519" stroke="#C7D6E2"/>
<path fill-rule="evenodd" clip-rule="evenodd" d="M39.9895 101H6.26268C3.35669 101 1 98.6453 1 95.7393V45.1037C1 42.2 3.35669 39.8433 6.26268 39.8433H39.9895C42.8955 39.8433 45.2499 42.2 45.2499 45.1037V95.7393C45.2499 98.6453 42.8955 101 39.9895 101Z" fill="#FCE1D0"/>
<path fill-rule="evenodd" clip-rule="evenodd" d="M39.9895 101H6.26268C3.35669 101 1 98.6453 1 95.7393V45.1037C1 42.2 3.35669 39.8433 6.26268 39.8433H39.9895C42.8955 39.8433 45.2499 42.2 45.2499 45.1037V95.7393C45.2499 98.6453 42.8955 101 39.9895 101Z" stroke="#FF5500"/>
<path fill-rule="evenodd" clip-rule="evenodd" d="M17.3981 95.8045H10.6005C8.61149 95.8045 6.99902 94.1921 6.99902 92.2053V85.4054C6.99902 83.4164 8.61149 81.8062 10.6005 81.8062H17.3981C19.3871 81.8062 20.9974 83.4164 20.9974 85.4054V92.2053C20.9974 94.1921 19.3871 95.8045 17.3981 95.8045Z" fill="#FCE1D0"/>
<path fill-rule="evenodd" clip-rule="evenodd" d="M17.3981 95.8045H10.6005C8.61149 95.8045 6.99902 94.1921 6.99902 92.2053V85.4054C6.99902 83.4164 8.61149 81.8062 10.6005 81.8062H17.3981C19.3871 81.8062 20.9974 83.4164 20.9974 85.4054V92.2053C20.9974 94.1921 19.3871 95.8045 17.3981 95.8045Z" stroke="#FF5500" stroke-linecap="round" stroke-linejoin="round"/>
<path fill-rule="evenodd" clip-rule="evenodd" d="M35.5275 95.8045H28.7299C26.7409 95.8045 25.1284 94.1921 25.1284 92.2053V85.4054C25.1284 83.4164 26.7409 81.8062 28.7299 81.8062H35.5275C37.5165 81.8062 39.129 83.4164 39.129 85.4054V92.2053C39.129 94.1921 37.5165 95.8045 35.5275 95.8045Z" fill="#FCE1D0"/>
<path fill-rule="evenodd" clip-rule="evenodd" d="M35.5275 95.8045H28.7299C26.7409 95.8045 25.1284 94.1921 25.1284 92.2053V85.4054C25.1284 83.4164 26.7409 81.8062 28.7299 81.8062H35.5275C37.5165 81.8062 39.129 83.4164 39.129 85.4054V92.2053C39.129 94.1921 37.5165 95.8045 35.5275 95.8045Z" stroke="#FF5500" stroke-linecap="round" stroke-linejoin="round"/>
<path fill-rule="evenodd" clip-rule="evenodd" d="M17.3981 78.1358H10.6005C8.61149 78.1358 6.99902 76.5234 6.99902 74.5344V67.7367C6.99902 65.7477 8.61149 64.1353 10.6005 64.1353H17.3981C19.3871 64.1353 20.9974 65.7477 20.9974 67.7367V74.5344C20.9974 76.5234 19.3871 78.1358 17.3981 78.1358Z" fill="#FCE1D0"/>
<path fill-rule="evenodd" clip-rule="evenodd" d="M17.3981 78.1358H10.6005C8.61149 78.1358 6.99902 76.5234 6.99902 74.5344V67.7367C6.99902 65.7477 8.61149 64.1353 10.6005 64.1353H17.3981C19.3871 64.1353 20.9974 65.7477 20.9974 67.7367V74.5344C20.9974 76.5234 19.3871 78.1358 17.3981 78.1358Z" stroke="#FF5500" stroke-linecap="round" stroke-linejoin="round"/>
<path fill-rule="evenodd" clip-rule="evenodd" d="M35.8764 59.6564H10.3759C8.38689 59.6564 6.77441 58.0439 6.77441 56.0549V49.2572C6.77441 47.2682 8.38689 45.6558 10.3759 45.6558H35.8764C37.8654 45.6558 39.4779 47.2682 39.4779 49.2572V56.0549C39.4779 58.0439 37.8654 59.6564 35.8764 59.6564Z" fill="#F9F6F4"/>
<path fill-rule="evenodd" clip-rule="evenodd" d="M35.8764 59.6564H10.3759C8.38689 59.6564 6.77441 58.0439 6.77441 56.0549V49.2572C6.77441 47.2682 8.38689 45.6558 10.3759 45.6558H35.8764C37.8654 45.6558 39.4779 47.2682 39.4779 49.2572V56.0549C39.4779 58.0439 37.8654 59.6564 35.8764 59.6564Z" stroke="#FF5500"/>
<path fill-rule="evenodd" clip-rule="evenodd" d="M35.5275 78.1358H28.7299C26.7409 78.1358 25.1284 76.5234 25.1284 74.5344V67.7367C25.1284 65.7477 26.7409 64.1353 28.7299 64.1353H35.5275C37.5165 64.1353 39.129 65.7477 39.129 67.7367V74.5344C39.129 76.5234 37.5165 78.1358 35.5275 78.1358Z" fill="#FCE1D0"/>
<path fill-rule="evenodd" clip-rule="evenodd" d="M35.5275 78.1358H28.7299C26.7409 78.1358 25.1284 76.5234 25.1284 74.5344V67.7367C25.1284 65.7477 26.7409 64.1353 28.7299 64.1353H35.5275C37.5165 64.1353 39.129 65.7477 39.129 67.7367V74.5344C39.129 76.5234 37.5165 78.1358 35.5275 78.1358Z" stroke="#FF5500" stroke-linecap="round" stroke-linejoin="round"/>
<path d="M32.1289 67.6216V74.3018" stroke="#FF5500" stroke-linecap="round" stroke-linejoin="round"/>
<path d="M35.4683 70.9609H28.7881" stroke="#FF5500" stroke-linecap="round" stroke-linejoin="round"/>
<path d="M16.9693 88.8052H10.2891" stroke="#FF5500" stroke-linecap="round" stroke-linejoin="round"/>
<path d="M35.4683 87.1992H28.7881" stroke="#FF5500" stroke-linecap="round" stroke-linejoin="round"/>
<path d="M35.4683 90.4111H28.7881" stroke="#FF5500" stroke-linecap="round" stroke-linejoin="round"/>
<path fill-rule="evenodd" clip-rule="evenodd" d="M15.9903 68.5991L11.2681 73.3236L15.9903 68.5991Z" fill="#FCE1D0"/>
<path d="M15.9903 68.5991L11.2681 73.3236" stroke="#FF5500" stroke-linecap="round" stroke-linejoin="round"/>
<path fill-rule="evenodd" clip-rule="evenodd" d="M15.9903 73.3231L11.2681 68.5986L15.9903 73.3231Z" fill="#FCE1D0"/>
<path d="M15.9903 73.3231L11.2681 68.5986" stroke="#FF5500" stroke-linecap="round" stroke-linejoin="round"/>
<path fill-rule="evenodd" clip-rule="evenodd" d="M78.6909 70.1013L66.9385 76.4581L73.5833 64.9937" fill="#FCE1D0"/>
<path d="M78.6909 70.1013L66.9385 76.4581L73.5833 64.9937" stroke="#FF5500" stroke-linecap="round" stroke-linejoin="round"/>
<path fill-rule="evenodd" clip-rule="evenodd" d="M125.463 23.873L125.829 26.9341L115.365 37.3952" fill="#FCE1D0"/>
<path d="M125.463 23.873L125.829 26.9341L115.365 37.3952" stroke="#FF5500" stroke-linecap="round" stroke-linejoin="round"/>
<path fill-rule="evenodd" clip-rule="evenodd" d="M123.698 19.2292L124.167 19.6988C124.796 20.3278 125.815 20.3278 126.442 19.6988L128.283 17.8582C128.912 17.2291 128.912 16.2103 128.283 15.5834L127.813 15.1139C127.186 14.4848 126.168 14.4848 125.538 15.1139L123.698 16.9545C123.069 17.5813 123.069 18.6002 123.698 19.2292Z" fill="#FCE1D0"/>
<path fill-rule="evenodd" clip-rule="evenodd" d="M123.698 19.2292L124.167 19.6988C124.796 20.3278 125.815 20.3278 126.442 19.6988L128.283 17.8582C128.912 17.2291 128.912 16.2103 128.283 15.5834L127.813 15.1139C127.186 14.4848 126.168 14.4848 125.538 15.1139L123.698 16.9545C123.069 17.5813 123.069 18.6002 123.698 19.2292Z" stroke="#FF5500"/>
<path fill-rule="evenodd" clip-rule="evenodd" d="M74.1663 66.6586L76.7378 69.2302C77.5175 70.0098 78.78 70.0098 79.5619 69.2302L126.829 21.9613C127.608 21.1816 127.608 19.9169 126.829 19.1372L124.259 16.5657C123.48 15.786 122.215 15.786 121.435 16.5657L74.1663 63.8346C73.3866 64.6142 73.3866 65.879 74.1663 66.6586Z" fill="#FCE1D0"/>
<path fill-rule="evenodd" clip-rule="evenodd" d="M74.1663 66.6586L76.7378 69.2302C77.5175 70.0098 78.78 70.0098 79.5619 69.2302L126.829 21.9613C127.608 21.1816 127.608 19.9169 126.829 19.1372L124.259 16.5657C123.48 15.786 122.215 15.786 121.435 16.5657L74.1663 63.8346C73.3866 64.6142 73.3866 65.879 74.1663 66.6586Z" stroke="#FF5500"/>
</svg>
