<svg width="121" height="82" viewBox="0 0 121 82" fill="none" xmlns="http://www.w3.org/2000/svg">
<path d="M90.1682 1H6.2245C3.39661 1 1.16406 3.23255 1.16406 6.06044V59.3439C1.16406 62.1718 3.39661 64.4043 6.2245 64.4043H90.1682C92.9961 64.4043 95.2287 62.1718 95.2287 59.3439V6.06044C95.2287 3.23255 92.9961 1 90.1682 1Z" fill="white" stroke="#2C415B"/>
<path d="M90.1683 64.4045L66.3545 22.4326L48.1965 32.7023L30.0384 22.4326L6.22461 64.4045H90.1683Z" stroke="#2C415B"/>
<path d="M66.3545 22.4326L90.1683 64.4044C92.9962 64.4044 95.2288 62.1719 95.2288 59.344V6.06055L66.3545 22.4326Z" stroke="#2C415B"/>
<path d="M1.16406 6.06055L30.0383 22.1349L6.2245 64.1067C3.39661 64.1067 1.16406 61.8742 1.16406 59.0463" stroke="#2C415B"/>
<path d="M94.7088 30.2063C101.66 30.2063 108.076 33.0133 112.62 37.6917C117.165 42.2364 120.106 48.6524 120.106 55.6031C120.106 62.5538 117.299 68.9699 112.62 73.5146C108.076 78.0593 101.66 81 94.7088 81C87.7581 81 81.3421 78.1929 76.7974 73.5146C72.2527 68.9699 69.312 62.5538 69.312 55.6031C69.312 48.6524 72.119 42.2364 76.7974 37.6917C81.3421 33.147 87.7581 30.2063 94.7088 30.2063Z" fill="#FCE1D0" stroke="#FF5500"/>
<path d="M109.947 45.0212L91.3226 63.6456L79.894 52.217" stroke="#FF5500" stroke-width="2" stroke-linecap="round"/>
</svg>
