<svg width="122" height="102" viewBox="0 0 122 102" fill="none" xmlns="http://www.w3.org/2000/svg">
<path d="M102.456 30.103C102.049 32.344 100.378 36.826 92.0663 36.826C92.0663 34.3813 92.0663 32.9552 92.0663 32.5478C89.6215 34.9925 86.9323 36.826 81.065 36.826C81.065 34.3813 81.065 32.9552 81.065 32.5478C79.8426 34.3813 77.0312 36.3371 73.1196 36.826" stroke="#2C415B"/>
<path d="M73.1196 30.103V47.4397C73.1196 54.0672 78.4922 59.4397 85.1196 59.4397H90.4563C97.0838 59.4397 102.456 54.0672 102.456 47.4397V30.103" stroke="#2C415B"/>
<path d="M68.23 34.9927V27.6585C68.23 16.857 76.9863 8.10069 87.7878 8.10069V8.10069C98.5893 8.10069 107.346 16.857 107.346 27.6585V34.9927" stroke="#2C415B"/>
<path d="M73.7306 33.77L72.5083 33.77C68.1202 33.77 64.5629 37.3273 64.5629 41.7154V41.7154C64.5629 46.1035 68.1202 49.6607 72.5083 49.6607L73.7306 49.6607M101.845 33.77L103.067 33.77C107.455 33.77 111.013 37.3273 111.013 41.7154V41.7154C111.013 46.1035 107.455 49.6607 103.067 49.6607L101.845 49.6607L96.3443 49.6607M96.3443 49.6607V49.6607C96.3443 51.0109 95.2497 52.1055 93.8995 52.1055C93.7966 52.1055 93.6944 52.1055 93.5936 52.1055C92.4122 52.1055 91.4549 50.613 91.4549 49.4315V49.4315C91.4549 48.2501 92.4126 47.8272 93.594 47.8272L94.5108 47.8272C95.5234 47.8272 96.3443 48.6481 96.3443 49.6607V49.6607Z" stroke="#2C415B"/>
<path d="M15.6685 101H54.1729M95.7332 63.1067V56.9949M95.7332 63.1067L87.7879 69.2185M95.7332 63.1067L100.99 64.7735M79.8425 56.9949V63.1067M79.8425 63.1067L87.7879 69.2185M79.8425 63.1067L74.3419 64.7735M59.6735 69.2185L74.3419 64.7735M54.1729 93.6658V101M54.1729 101H68.2301M68.2301 78.9974V101M68.2301 101H80.4537M107.346 78.9974V101M107.346 101H120.792V78.372C120.792 74.0135 117.969 70.157 113.814 68.8397L100.99 64.7735M107.346 101H95.5724M87.7879 69.2185L80.4537 73.4646M87.7879 69.2185L94.35 73.4646M74.3419 64.7735L76.1754 75.9415L80.4537 73.4646M100.99 64.7735L98.178 75.9415L94.35 73.4646M80.4537 73.4646L84.732 78.9974L80.4537 101M80.4537 101H95.5724M94.35 73.4646L90.8438 78.9974L95.5724 101" stroke="#2C415B"/>
<path d="M80.4536 73.4649L87.7878 69.2188L94.35 73.4649L90.8437 78.9977L95.5723 101H80.4536L84.7319 78.9977L80.4536 73.4649Z" fill="#FCE1D0" stroke="#FF5500"/>
<path d="M55.6734 49.6609H5C2.79086 49.6609 1 51.4517 1 53.6609V89.666C1 91.8751 2.79086 93.666 5 93.666H37.6709H55.6734C57.8826 93.666 59.6734 91.8751 59.6734 89.666V53.6609C59.6734 51.4517 57.8826 49.6609 55.6734 49.6609Z" fill="white" stroke="#2C415B"/>
<path d="M23.0025 93.666H5C2.79086 93.666 1 91.8751 1 89.666V53.6609C1 51.4517 2.79086 49.6609 5 49.6609H55.6734C57.8826 49.6609 59.6734 51.4517 59.6734 53.6609V89.666C59.6734 91.8751 57.8826 93.666 55.6734 93.666H37.6709" stroke="#2C415B"/>
<path d="M23.0024 84.2197C23.0024 82.0106 24.7933 80.2197 27.0024 80.2197H33.6708C35.8799 80.2197 37.6708 82.0106 37.6708 84.2197V101H23.0024V84.2197Z" fill="white" stroke="#2C415B"/>
<path d="M30.1668 1C35.8686 1 41.1317 3.30263 44.8598 7.14034C48.5878 10.8684 51.0001 16.1316 51.0001 21.8333C51.0001 27.5351 48.6975 32.7982 44.8598 36.5263C41.1317 40.2544 35.8686 42.6666 30.1668 42.6666C24.4651 42.6666 19.2019 40.364 15.4738 36.5263C11.7458 32.7982 9.3335 27.5351 9.3335 21.8333C9.3335 16.1316 11.6361 10.8684 15.4738 7.14034C19.2019 3.41228 24.4651 1 30.1668 1Z" fill="#FCE1D0" stroke="#FF5500"/>
<path d="M27.6668 21.4167V21.4167C27.6668 23.1637 26.5628 24.7198 24.9139 25.2969L22.6817 26.0782C20.6763 26.7801 19.3335 28.6728 19.3335 30.7975V35.1667H41.4168V30.7975C41.4168 28.6728 40.074 26.7801 38.0686 26.0782L35.8364 25.2969C34.1875 24.7198 33.0835 23.1637 33.0835 21.4167V21.4167" stroke="#FF5500"/>
<rect x="24.833" y="8.1665" width="10.6667" height="14" rx="5.33333" stroke="#FF5500"/>
</svg>
